<svg xmlns="http://www.w3.org/2000/svg" viewBox="0 0 430 120" fill="white">
  <path d="M95 15c18 0 33 15 33 33s-15 33-33 33-33-15-33-33 15-33 33-33zm0 10c-12 0-22 10-22 23s10 23 22 23 22-10 22-23-10-23-22-23z"/>
  <path d="M40 105c0 0 10-15 25-25 10-7 20-10 30-10s20 3 30 10c15 10 25 25 25 25" stroke="white" fill="none" stroke-width="8"/>
  <path d="M200 20h40c10 0 20 10 20 25s-10 25-20 25h-40V20z"/>
  <path d="M290 20h40c10 0 20 10 20 25s-10 25-20 25h-40V20z"/>
  <path d="M390 20c20 0 40 15 40 35s-20 35-40 35-40-15-40-35 20-35 40-35zm0 10c-15 0-25 10-25 25s10 25 25 25 25-10 25-25-10-25-25-25z"/>
</svg> 